{
    "asset" : {
        "generator" : "Khronos glTF Blender I/O v1.2.75",
        "version" : "2.0"
    },
    "scene" : 0,
    "scenes" : [
        {
            "name" : "Scene",
            "nodes" : [
                20,
                25,
                26,
                27
            ]
        }
    ],
    "nodes" : [
        {
            "name" : "Books.002",
            "rotation" : [
                -0.35248124599456787,
                0.6129902005195618,
                0.612990140914917,
                0.35248127579689026
            ],
            "scale" : [
                134.13211059570312,
                96.75807189941406,
                9.705817222595215
            ],
            "translation" : [
                -306.0663146972656,
                21.401683807373047,
                -204.38490295410156
            ]
        },
        {
            "name" : "bottle 3.000",
            "rotation" : [
                -0.7007452845573425,
                0.09463666379451752,
                0.09463667124509811,
                0.7007452249526978
            ],
            "scale" : [
                31.89356803894043,
                31.89356803894043,
                31.893566131591797
            ],
            "translation" : [
                -230.19918823242188,
                85.48326873779297,
                249.6507568359375
            ]
        },
        {
            "name" : "bottle 3.002",
            "rotation" : [
                -0.7071068286895752,
                0,
                0,
                0.7071067094802856
            ],
            "scale" : [
                22.093244552612305,
                22.093244552612305,
                22.093244552612305
            ],
            "translation" : [
                -248.97296142578125,
                44.14990997314453,
                39.47669219970703
            ]
        },
        {
            "name" : "bottle 3.004",
            "rotation" : [
                -0.2498057633638382,
                -0.4916386306285858,
                -0.8292980194091797,
                0.09029550850391388
            ],
            "scale" : [
                26.93143653869629,
                26.931438446044922,
                26.931438446044922
            ],
            "translation" : [
                -223.17347717285156,
                716.42236328125,
                46.204105377197266
            ]
        },
        {
            "name" : "Candles 2",
            "rotation" : [
                -0.7071068286895752,
                0,
                0,
                0.7071067094802856
            ],
            "scale" : [
                38.118831634521484,
                38.118831634521484,
                59.22908020019531
            ],
            "translation" : [
                -62.09657669067383,
                81.79019927978516,
                -377.3994445800781
            ]
        },
        {
            "name" : "Crystal ball",
            "rotation" : [
                -0.7071068286895752,
                0,
                0,
                0.7071067094802856
            ],
            "scale" : [
                33.98645782470703,
                33.98645782470703,
                52.808189392089844
            ],
            "translation" : [
                150.4230499267578,
                131.53746032714844,
                -398.16424560546875
            ]
        },
        {
            "name" : "Fire",
            "rotation" : [
                -0.7071068286895752,
                0,
                0,
                0.7071067094802856
            ],
            "scale" : [
                154.7956085205078,
                154.7956085205078,
                154.7956085205078
            ],
            "translation" : [
                122.27621459960938,
                131.6147918701172,
                -17.642940521240234
            ]
        },
        {
            "name" : "Grass1 .000",
            "rotation" : [
                -0.6035409569740295,
                -0.3684268593788147,
                -0.36842697858810425,
                0.60354083776474
            ],
            "scale" : [
                31.278419494628906,
                107.95024871826172,
                80.71051025390625
            ],
            "translation" : [
                -144.77023315429688,
                20.867767333984375,
                134.915771484375
            ]
        },
        {
            "name" : "Grass1 .005",
            "rotation" : [
                -0.2286008894443512,
                -0.6691350340843201,
                -0.6691349148750305,
                0.22860097885131836
            ],
            "scale" : [
                38.75383758544922,
                133.74993896484375,
                100
            ],
            "translation" : [
                289.0914306640625,
                20.867767333984375,
                -227.22349548339844
            ]
        },
        {
            "name" : "mug",
            "rotation" : [
                -0.7001937627792358,
                0.09863428771495819,
                0.09863428771495819,
                0.7001937627792358
            ],
            "scale" : [
                80.47220611572266,
                80.47220611572266,
                22.371187210083008
            ],
            "translation" : [
                123.87025451660156,
                85.79036712646484,
                -14.352914810180664
            ]
        },
        {
            "name" : "paper 6",
            "rotation" : [
                -0.69927978515625,
                -0.10491843521595001,
                -0.10491843521595001,
                0.6992796659469604
            ],
            "scale" : [
                78.42974090576172,
                110.37444305419922,
                110.37443542480469
            ],
            "translation" : [
                -251.7747344970703,
                21.13042449951172,
                -320.07611083984375
            ]
        },
        {
            "name" : "smoke",
            "rotation" : [
                0,
                -0.9344029426574707,
                0,
                0.35621777176856995
            ],
            "scale" : [
                100,
                250.77638244628906,
                100
            ],
            "translation" : [
                146.32083129882812,
                412.6763916015625,
                -9.276801109313965
            ]
        },
        {
            "name" : "spider web",
            "rotation" : [
                -0.5589652061462402,
                0.4330796003341675,
                -0.5589652061462402,
                0.43307971954345703
            ],
            "scale" : [
                95.6618881225586,
                95.6618881225586,
                95.6618881225586
            ],
            "translation" : [
                -223.85958862304688,
                976.7055053710938,
                -1558.5498046875
            ]
        },
        {
            "name" : "stars",
            "scale" : [
                19.559232711791992,
                19.559232711791992,
                19.559232711791992
            ],
            "translation" : [
                92.84285736083984,
                243.5079345703125,
                -384.4197082519531
            ]
        },
        {
            "mesh" : 0,
            "name" : "Table_wood_0.003",
            "translation" : [
                -0.003442278830334544,
                -0.22863531112670898,
                5.831290245056152
            ]
        },
        {
            "children" : [
                14
            ],
            "name" : "Table",
            "rotation" : [
                -0.7071068286895752,
                0,
                0,
                0.7071067094802856
            ],
            "scale" : [
                360.9612121582031,
                454.28448486328125,
                20.916349411010742
            ]
        },
        {
            "name" : "wosk",
            "rotation" : [
                -0.7071068286895752,
                0,
                0,
                0.7071067094802856
            ],
            "scale" : [
                66.70857238769531,
                66.70857238769531,
                66.70857238769531
            ],
            "translation" : [
                -82.80216979980469,
                22.390348434448242,
                260.2409973144531
            ]
        },
        {
            "children" : [
                0,
                1,
                2,
                3,
                4,
                5,
                6,
                7,
                8,
                9,
                10,
                11,
                12,
                13,
                15,
                16
            ],
            "name" : "RootNode"
        },
        {
            "children" : [
                17
            ],
            "name" : "542a4f72d9f44bbdb4f46447c885cc7d.fbx",
            "rotation" : [
                0.7071068286895752,
                0,
                0,
                0.7071068286895752
            ]
        },
        {
            "children" : [
                18
            ],
            "name" : "RootNode (model correction matrix)"
        },
        {
            "children" : [
                19
            ],
            "name" : "RootNode (gltf orientation matrix)",
            "rotation" : [
                -0.7071067690849304,
                0,
                0,
                0.7071067690849304
            ]
        },
        {
            "name" : "Node_5",
            "translation" : [
                1.0756758451461792,
                0.5885337591171265,
                -11.187053680419922
            ]
        },
        {
            "children" : [
                21
            ],
            "name" : "doll",
            "rotation" : [
                -0.6672220826148987,
                -0.23412540555000305,
                -0.23412543535232544,
                0.6672220826148987
            ],
            "scale" : [
                0.5069772601127625,
                0.4327509105205536,
                1
            ]
        },
        {
            "children" : [
                22
            ],
            "name" : "RootNode.001"
        },
        {
            "children" : [
                23
            ],
            "name" : "17d9ce374dba464a8155d4f04d78b920.fbx",
            "rotation" : [
                0.7071068286895752,
                0,
                0,
                0.7071068286895752
            ]
        },
        {
            "children" : [
                24
            ],
            "name" : "RootNode (model corretion matrix).001",
            "scale" : [
                12.889937400817871,
                12.889937400817871,
                12.889937400817871
            ],
            "translation" : [
                0,
                807.8124389648438,
                0
            ]
        },
        {
            "name" : "Light",
            "rotation" : [
                0.16907575726509094,
                0.7558803558349609,
                -0.27217137813568115,
                0.570947527885437
            ],
            "translation" : [
                4.076245307922363,
                5.903861999511719,
                -1.0054539442062378
            ]
        },
        {
            "name" : "Camera",
            "rotation" : [
                0.483536034822464,
                0.33687159419059753,
                -0.20870360732078552,
                0.7804827094078064
            ],
            "translation" : [
                7.358891487121582,
                4.958309173583984,
                6.925790786743164
            ]
        }
    ],
    "materials" : [
        {
            "doubleSided" : true,
            "emissiveFactor" : [
                0,
                0,
                0
            ],
            "name" : "wood",
            "normalTexture" : {
                "index" : 0,
                "texCoord" : 0
            },
            "occlusionTexture" : {
                "index" : 1,
                "texCoord" : 0
            },
            "pbrMetallicRoughness" : {
                "baseColorTexture" : {
                    "index" : 2,
                    "texCoord" : 0
                },
                "metallicRoughnessTexture" : {
                    "index" : 1,
                    "texCoord" : 0
                }
            }
        }
    ],
    "meshes" : [
        {
            "name" : "Table_wood_0.003",
            "primitives" : [
                {
                    "attributes" : {
                        "POSITION" : 0,
                        "NORMAL" : 1,
                        "TEXCOORD_0" : 2
                    },
                    "indices" : 3,
                    "material" : 0
                }
            ]
        }
    ],
    "textures" : [
        {
            "source" : 0
        },
        {
            "source" : 1
        },
        {
            "source" : 2
        }
    ],
    "images" : [
        {
            "bufferView" : 4,
            "mimeType" : "image/png",
            "name" : "wood_normal"
        },
        {
            "bufferView" : 5,
            "mimeType" : "image/png",
            "name" : "wood_metallicRoughness"
        },
        {
            "bufferView" : 6,
            "mimeType" : "image/png",
            "name" : "wood_baseColor"
        }
    ],
    "accessors" : [
        {
            "bufferView" : 0,
            "componentType" : 5126,
            "count" : 229,
            "max" : [
                -0.5432223677635193,
                1.3929264545440674,
                50.02096939086914
            ],
            "min" : [
                -0.7271069884300232,
                1.2612578868865967,
                -8.086594581604004
            ],
            "type" : "VEC3"
        },
        {
            "bufferView" : 1,
            "componentType" : 5126,
            "count" : 229,
            "type" : "VEC3"
        },
        {
            "bufferView" : 2,
            "componentType" : 5126,
            "count" : 229,
            "type" : "VEC2"
        },
        {
            "bufferView" : 3,
            "componentType" : 5123,
            "count" : 261,
            "type" : "SCALAR"
        }
    ],
    "bufferViews" : [
        {
            "buffer" : 0,
            "byteLength" : 2748,
            "byteOffset" : 0
        },
        {
            "buffer" : 0,
            "byteLength" : 2748,
            "byteOffset" : 2748
        },
        {
            "buffer" : 0,
            "byteLength" : 1832,
            "byteOffset" : 5496
        },
        {
            "buffer" : 0,
            "byteLength" : 522,
            "byteOffset" : 7328
        },
        {
            "buffer" : 0,
            "byteLength" : 503154,
            "byteOffset" : 7852
        },
        {
            "buffer" : 0,
            "byteLength" : 377489,
            "byteOffset" : 511008
        },
        {
            "buffer" : 0,
            "byteLength" : 832783,
            "byteOffset" : 888500
        }
    ],
    "buffers" : [
        {
            "byteLength" : 1721284,
            "uri" : "data:application/octet-stream;base64,"
        }
    ]
}
