{
    "asset" : {
        "generator" : "Khronos glTF Blender I/O v1.2.75",
        "version" : "2.0"
    },
    "scene" : 0,
    "scenes" : [
        {
            "name" : "Scene",
            "nodes" : [
                13,
                17,
                23,
                24,
                25
            ]
        }
    ],
    "nodes" : [
        {
            "name" : "bottle 3.004",
            "rotation" : [
                -0.2498057633638382,
                -0.4916386306285858,
                -0.8292980194091797,
                0.09029550850391388
            ],
            "scale" : [
                26.93143653869629,
                26.931438446044922,
                26.931438446044922
            ],
            "translation" : [
                -223.17347717285156,
                716.42236328125,
                46.204105377197266
            ]
        },
        {
            "name" : "Crystal ball",
            "rotation" : [
                -0.7071068286895752,
                0,
                0,
                0.7071067094802856
            ],
            "scale" : [
                33.98645782470703,
                33.98645782470703,
                52.808189392089844
            ],
            "translation" : [
                150.4230499267578,
                131.53746032714844,
                -398.16424560546875
            ]
        },
        {
            "name" : "Grass1 .001",
            "rotation" : [
                -0.7978346347808838,
                -0.10446903109550476,
                -0.5913428068161011,
                0.053478632122278214
            ],
            "scale" : [
                29.384531021118164,
                133.70440673828125,
                97.95123291015625
            ],
            "translation" : [
                -198.4559326171875,
                715.3033447265625,
                339.0676574707031
            ]
        },
        {
            "name" : "Grass1 .005",
            "rotation" : [
                -0.2286008894443512,
                -0.6691350340843201,
                -0.6691349148750305,
                0.22860097885131836
            ],
            "scale" : [
                38.75383758544922,
                133.74993896484375,
                100
            ],
            "translation" : [
                289.0914306640625,
                20.867767333984375,
                -227.22349548339844
            ]
        },
        {
            "name" : "mug",
            "rotation" : [
                -0.7001937627792358,
                0.09863428771495819,
                0.09863428771495819,
                0.7001937627792358
            ],
            "scale" : [
                80.47220611572266,
                80.47220611572266,
                22.371187210083008
            ],
            "translation" : [
                123.87025451660156,
                85.79036712646484,
                -14.352914810180664
            ]
        },
        {
            "mesh" : 0,
            "name" : "rope_rope_0",
            "translation" : [
                0,
                -3.757843017578125,
                0
            ]
        },
        {
            "children" : [
                5
            ],
            "name" : "rope",
            "rotation" : [
                -0.7071068286895752,
                0,
                0,
                0.7071067094802856
            ],
            "scale" : [
                4.361843109130859,
                4.361843109130859,
                104.69263458251953
            ],
            "translation" : [
                -199.6273651123047,
                946.3176879882812,
                328.9439392089844
            ]
        },
        {
            "name" : "smoke",
            "rotation" : [
                0,
                -0.9344029426574707,
                0,
                0.35621777176856995
            ],
            "scale" : [
                100,
                250.77638244628906,
                100
            ],
            "translation" : [
                146.32083129882812,
                412.6763916015625,
                -9.276801109313965
            ]
        },
        {
            "name" : "spider web",
            "rotation" : [
                -0.5589652061462402,
                0.4330796003341675,
                -0.5589652061462402,
                0.43307971954345703
            ],
            "scale" : [
                95.6618881225586,
                95.6618881225586,
                95.6618881225586
            ],
            "translation" : [
                -223.85958862304688,
                976.7055053710938,
                -1558.5498046875
            ]
        },
        {
            "name" : "stars",
            "scale" : [
                19.559232711791992,
                19.559232711791992,
                19.559232711791992
            ],
            "translation" : [
                92.84285736083984,
                243.5079345703125,
                -384.4197082519531
            ]
        },
        {
            "children" : [
                0,
                1,
                2,
                3,
                4,
                6,
                7,
                8,
                9
            ],
            "name" : "RootNode"
        },
        {
            "children" : [
                10
            ],
            "name" : "542a4f72d9f44bbdb4f46447c885cc7d.fbx",
            "rotation" : [
                0.7071068286895752,
                0,
                0,
                0.7071068286895752
            ]
        },
        {
            "children" : [
                11
            ],
            "name" : "RootNode (model correction matrix)"
        },
        {
            "children" : [
                12
            ],
            "name" : "RootNode (gltf orientation matrix)",
            "rotation" : [
                -0.7071067690849304,
                0,
                0,
                0.7071067690849304
            ]
        },
        {
            "name" : "doll",
            "rotation" : [
                -0.6672220826148987,
                -0.23412540555000305,
                -0.23412543535232544,
                0.6672220826148987
            ],
            "scale" : [
                0.5069772601127625,
                0.4327509105205536,
                1
            ]
        },
        {
            "children" : [
                14
            ],
            "name" : "RootNode.001"
        },
        {
            "children" : [
                15
            ],
            "name" : "17d9ce374dba464a8155d4f04d78b920.fbx",
            "rotation" : [
                0.7071068286895752,
                0,
                0,
                0.7071068286895752
            ]
        },
        {
            "children" : [
                16
            ],
            "name" : "RootNode (model corretion matrix).001",
            "scale" : [
                12.889937400817871,
                12.889937400817871,
                12.889937400817871
            ],
            "translation" : [
                0,
                807.8124389648438,
                0
            ]
        },
        {
            "name" : "Node_5.001",
            "translation" : [
                1.0756758451461792,
                0.5885337591171265,
                -11.187053680419922
            ]
        },
        {
            "children" : [
                18
            ],
            "name" : "doll.001",
            "rotation" : [
                -0.6672220826148987,
                -0.23412540555000305,
                -0.23412543535232544,
                0.6672220826148987
            ],
            "scale" : [
                0.5069772601127625,
                0.4327509105205536,
                1
            ]
        },
        {
            "children" : [
                19
            ],
            "name" : "RootNode.002"
        },
        {
            "children" : [
                20
            ],
            "name" : "17d9ce374dba464a8155d4f04d78b920.fbx.001",
            "rotation" : [
                0.7071068286895752,
                0,
                0,
                0.7071068286895752
            ]
        },
        {
            "children" : [
                21
            ],
            "name" : "RootNode (model correction matrix).001"
        },
        {
            "children" : [
                22
            ],
            "name" : "RootNode (gltf orientation matrix).002",
            "rotation" : [
                -0.7071067690849304,
                0,
                0,
                0.7071067690849304
            ],
            "scale" : [
                7.367841720581055,
                7.367841720581055,
                7.367841720581055
            ],
            "translation" : [
                -92.97247314453125,
                661.7466430664062,
                275.8221435546875
            ]
        },
        {
            "name" : "Light",
            "rotation" : [
                0.16907575726509094,
                0.7558803558349609,
                -0.27217137813568115,
                0.570947527885437
            ],
            "translation" : [
                4.076245307922363,
                5.903861999511719,
                -1.0054539442062378
            ]
        },
        {
            "name" : "Camera",
            "rotation" : [
                0.483536034822464,
                0.33687159419059753,
                -0.20870360732078552,
                0.7804827094078064
            ],
            "translation" : [
                7.358891487121582,
                4.958309173583984,
                6.925790786743164
            ]
        }
    ],
    "materials" : [
        {
            "doubleSided" : true,
            "emissiveFactor" : [
                0,
                0,
                0
            ],
            "name" : "rope",
            "normalTexture" : {
                "index" : 0,
                "texCoord" : 0
            },
            "occlusionTexture" : {
                "index" : 1,
                "texCoord" : 0
            },
            "pbrMetallicRoughness" : {
                "baseColorTexture" : {
                    "index" : 2,
                    "texCoord" : 0
                },
                "metallicRoughnessTexture" : {
                    "index" : 1,
                    "texCoord" : 0
                }
            }
        }
    ],
    "meshes" : [
        {
            "name" : "rope_rope_0",
            "primitives" : [
                {
                    "attributes" : {
                        "POSITION" : 0,
                        "NORMAL" : 1,
                        "TEXCOORD_0" : 2
                    },
                    "indices" : 3,
                    "material" : 0
                }
            ]
        }
    ],
    "textures" : [
        {
            "source" : 0
        },
        {
            "source" : 1
        },
        {
            "source" : 2
        }
    ],
    "images" : [
        {
            "bufferView" : 4,
            "mimeType" : "image/png",
            "name" : "rope_normal"
        },
        {
            "bufferView" : 5,
            "mimeType" : "image/png",
            "name" : "rope_metallicRoughness"
        },
        {
            "bufferView" : 6,
            "mimeType" : "image/png",
            "name" : "rope_baseColor"
        }
    ],
    "accessors" : [
        {
            "bufferView" : 0,
            "componentType" : 5126,
            "count" : 64,
            "max" : [
                1,
                1,
                1.0911412239074707
            ],
            "min" : [
                -13.522358894348145,
                -3.469611883163452,
                -1
            ],
            "type" : "VEC3"
        },
        {
            "bufferView" : 1,
            "componentType" : 5126,
            "count" : 64,
            "type" : "VEC3"
        },
        {
            "bufferView" : 2,
            "componentType" : 5126,
            "count" : 64,
            "type" : "VEC2"
        },
        {
            "bufferView" : 3,
            "componentType" : 5123,
            "count" : 276,
            "type" : "SCALAR"
        }
    ],
    "bufferViews" : [
        {
            "buffer" : 0,
            "byteLength" : 768,
            "byteOffset" : 0
        },
        {
            "buffer" : 0,
            "byteLength" : 768,
            "byteOffset" : 768
        },
        {
            "buffer" : 0,
            "byteLength" : 512,
            "byteOffset" : 1536
        },
        {
            "buffer" : 0,
            "byteLength" : 552,
            "byteOffset" : 2048
        },
        {
            "buffer" : 0,
            "byteLength" : 491953,
            "byteOffset" : 2600
        },
        {
            "buffer" : 0,
            "byteLength" : 302547,
            "byteOffset" : 494556
        },
        {
            "buffer" : 0,
            "byteLength" : 504683,
            "byteOffset" : 797104
        }
    ],
    "buffers" : [
        {
            "byteLength" : 1301788,
            "uri" : "data:application/octet-stream;base64,"
        }
    ]
}
